<svg width="245" height="297" viewBox="0 0 245 297" fill="none" xmlns="http://www.w3.org/2000/svg">
<g opacity="0.8">
<path d="M161.413 171.803L179.395 189.092C188.061 197.423 225.596 179.749 263.233 149.615C300.871 119.481 324.356 88.2995 315.69 79.9676L297.708 62.6793L161.413 171.803Z" fill="#228753"/>
<path d="M245.248 132.325C282.885 102.191 306.371 71.0091 297.705 62.6776C289.039 54.3461 251.504 72.0203 213.867 102.154C176.23 132.288 152.744 163.47 161.41 171.801C170.076 180.133 207.611 162.459 245.248 132.325Z" fill="#228753"/>
<path d="M239.129 129.157C269.694 104.686 288.766 79.3633 281.729 72.5975C274.692 65.8317 244.209 80.1847 213.645 104.656C183.081 129.127 164.008 154.45 171.046 161.215C178.083 167.981 208.565 153.628 239.129 129.157Z" fill="#26D97D"/>
<path d="M243.132 130.29C207.045 159.183 171.067 176.606 160.524 170.646C160.773 171.065 161.056 171.461 161.412 171.804C170.078 180.136 207.613 162.462 245.251 132.327C282.888 102.193 306.374 71.0118 297.708 62.6799C297.351 62.337 296.927 62.0537 296.475 61.7984C302.279 71.5524 279.22 101.396 243.132 130.29Z" fill="#1FAD64"/>
<path d="M229.33 111.58L229.857 111.266L230.264 111.022L229.814 108.204L228.621 107.057L229.33 111.58ZM214.492 122.984L214.194 122.698C214.275 122.808 214.374 122.903 214.492 122.984Z" fill="#3DF496"/>
<mask id="mask0_476_7491" style="mask-type:luminance" maskUnits="userSpaceOnUse" x="225" y="123" width="8" height="6">
<path d="M231.279 123.993L232.473 125.141L227.165 128.891L225.97 127.742L226.881 127.098L231.279 123.993Z" fill="white"/>
</mask>
<g mask="url(#mask0_476_7491)">
<path d="M232.144 122.62L225.925 127.599L228.697 130.264L234.916 125.285L232.144 122.62Z" fill="#3DF496"/>
<path d="M225.925 127.6L219.706 132.579L222.478 135.244L228.697 130.265L225.925 127.6Z" fill="#3DF496"/>
</g>
<mask id="mask1_476_7491" style="mask-type:luminance" maskUnits="userSpaceOnUse" x="213" y="125" width="13" height="6">
<path d="M225.549 125.084L225.826 126.82C222.489 128.903 219.777 130.174 217.691 130.632C215.424 131.128 214.04 130.88 213.537 129.888L213.099 129.467C213.299 129.566 213.529 129.636 213.787 129.676C214.563 129.792 215.485 129.728 216.501 129.487C218.767 128.982 221.783 127.515 225.549 125.084Z" fill="white"/>
</mask>
<g mask="url(#mask1_476_7491)">
<path d="M229.369 119.951L223.15 124.93L225.922 127.595L232.141 122.616L229.369 119.951Z" fill="#3DF496"/>
<path d="M220.377 122.26L214.158 127.239L216.93 129.904L223.149 124.925L220.377 122.26Z" fill="#3DF496"/>
<path d="M223.15 124.93L216.93 129.91L219.702 132.575L225.922 127.595L223.15 124.93Z" fill="#3DF496"/>
<path d="M214.158 127.242L207.938 132.222L210.71 134.887L216.93 129.907L214.158 127.242Z" fill="#3DF496"/>
<path d="M216.93 129.91L210.711 134.889L213.483 137.554L219.702 132.575L216.93 129.91Z" fill="#3DF496"/>
</g>
<mask id="mask2_476_7491" style="mask-type:luminance" maskUnits="userSpaceOnUse" x="213" y="117" width="12" height="7">
<path d="M224.41 117.808L224.685 119.521L224.536 119.601C221.374 121.497 218.846 122.671 216.952 123.122C215.908 123.39 215.036 123.342 214.483 122.987L213.291 121.84C213.461 121.961 213.671 122.046 213.917 122.093C214.438 122.185 215.071 122.143 215.772 121.968C217.666 121.512 220.194 120.339 223.356 118.448L224.41 117.808Z" fill="white"/>
</mask>
<g mask="url(#mask2_476_7491)">
<path d="M221.056 111.963L214.836 116.943L217.608 119.608L223.828 114.628L221.056 111.963Z" fill="#3DF496"/>
<path d="M223.829 114.634L217.61 119.613L220.382 122.278L226.601 117.299L223.829 114.634Z" fill="#3DF496"/>
<path d="M226.599 117.294L220.38 122.273L223.152 124.938L229.371 119.959L226.599 117.294Z" fill="#3DF496"/>
<path d="M214.837 116.943L208.618 121.922L211.39 124.587L217.609 119.608L214.837 116.943Z" fill="#3DF496"/>
<path d="M217.61 119.614L211.391 124.593L214.163 127.258L220.382 122.279L217.61 119.614Z" fill="#3DF496"/>
<path d="M220.38 122.274L214.161 127.253L216.933 129.918L223.152 124.939L220.38 122.274Z" fill="#3DF496"/>
</g>
<mask id="mask3_476_7491" style="mask-type:luminance" maskUnits="userSpaceOnUse" x="228" y="105" width="7" height="4">
<path d="M233.268 106.445L234.17 107.313C233.404 106.792 231.951 107.092 229.812 108.211L228.619 107.063C231.069 105.781 232.619 105.575 233.268 106.445Z" fill="white"/>
</mask>
<g mask="url(#mask3_476_7491)">
<path d="M233.497 102.003L227.278 106.982L230.05 109.647L236.269 104.668L233.497 102.003Z" fill="#3DF496"/>
<path d="M236.27 104.667L230.051 109.646L232.823 112.311L239.042 107.332L236.27 104.667Z" fill="#3DF496"/>
</g>
<mask id="mask4_476_7491" style="mask-type:luminance" maskUnits="userSpaceOnUse" x="233" y="101" width="8" height="7">
<path d="M239.368 101.183L240.561 102.33L234.464 107.592C234.385 107.484 234.287 107.39 234.171 107.311L233.269 106.443L238.741 101.725L239.368 101.183Z" fill="white"/>
</mask>
<g mask="url(#mask4_476_7491)">
<path d="M239.716 97.022L233.496 102.001L236.268 104.666L242.487 99.687L239.716 97.022Z" fill="#3DF496"/>
<path d="M242.488 99.6841L236.269 104.663L239.041 107.328L245.26 102.349L242.488 99.6841Z" fill="#3DF496"/>
<path d="M233.496 101.997L227.277 106.977L230.049 109.642L236.268 104.662L233.496 101.997Z" fill="#3DF496"/>
<path d="M236.269 104.664L230.05 109.643L232.822 112.308L239.041 107.329L236.269 104.664Z" fill="#3DF496"/>
</g>
<path d="M213.298 121.833L213.001 121.547C213.082 121.657 213.181 121.752 213.298 121.833ZM213.104 129.47L212.347 128.741C212.504 129.057 212.76 129.304 213.104 129.47Z" fill="#3DF496"/>
<mask id="mask5_476_7491" style="mask-type:luminance" maskUnits="userSpaceOnUse" x="212" y="100" width="30" height="30">
<path d="M238.736 101.719L239.363 101.177C238.74 100.51 237.509 100.387 235.67 100.807C234.041 101.149 231.86 102.156 229.142 103.791C228.839 103.971 228.533 104.159 228.217 104.358L228.057 103.46L227.774 101.668L222.465 105.417L222.884 108.098C219.965 110.304 217.346 112.798 215.241 115.377C213.348 117.743 212.5 119.549 212.695 120.797C212.736 121.081 212.835 121.332 212.988 121.543L213.29 121.834C213.461 121.955 213.671 122.04 213.917 122.087C214.438 122.179 215.071 122.136 215.772 121.962C217.666 121.506 220.194 120.332 223.356 118.441L224.41 117.807L224.681 119.518L225.145 122.463C223.308 123.556 221.845 124.16 220.754 124.278C220.262 124.327 219.831 124.288 219.482 124.162C219.101 124.012 218.834 123.755 218.699 123.409L212.363 128.765L213.12 129.494C213.32 129.593 213.551 129.663 213.808 129.703C214.584 129.818 215.507 129.754 216.522 129.514C218.796 129.016 221.811 127.548 225.567 125.108L225.827 126.821L225.97 127.741L226.881 127.097L231.276 123.989L230.853 121.311C234.246 118.688 236.831 116.234 238.61 113.95C240.389 111.666 241.186 109.922 241.002 108.719C240.985 108.703 240.993 108.666 240.988 108.642C240.935 108.358 240.815 108.114 240.632 107.918C240.075 107.399 239.065 107.285 237.814 107.6C235.993 107.969 233.476 109.107 230.262 111.012L229.855 111.257L229.328 111.571L228.598 107.052C231.046 105.773 232.599 105.569 233.255 106.442L238.736 101.719ZM223.608 112.616L223.944 114.847C222.554 115.699 221.466 116.208 220.678 116.376C220.205 116.468 219.824 116.412 219.599 116.216C219.504 116.12 219.444 115.996 219.423 115.849C219.369 115.266 219.684 114.504 220.301 113.729C221.108 112.673 222.133 111.638 223.295 110.706L223.608 112.616ZM234.325 113.608C234.347 113.794 234.323 114.005 234.253 114.232C234.101 114.707 233.822 115.221 233.433 115.74C232.864 116.502 232.147 117.256 231.332 117.949C231.056 118.193 230.755 118.444 230.438 118.699L229.8 114.569C232.658 112.915 234.167 112.595 234.325 113.608Z" fill="white"/>
</mask>
<g mask="url(#mask5_476_7491)">
<path d="M236.94 94.3461L230.72 99.3254L233.492 101.99L239.712 97.0111L236.94 94.3461Z" fill="#3DF496"/>
<path d="M239.711 97.0105L233.492 101.99L236.264 104.655L242.483 99.6755L239.711 97.0105Z" fill="#3DF496"/>
<path d="M242.487 99.6812L236.268 104.661L239.04 107.326L245.259 102.346L242.487 99.6812Z" fill="#3DF496"/>
<path d="M245.257 102.343L239.038 107.323L241.81 109.988L248.029 105.008L245.257 102.343Z" fill="#3DF496"/>
<path d="M227.948 96.6619L221.729 101.641L224.501 104.306L230.72 99.3269L227.948 96.6619Z" fill="#3DF496"/>
<path d="M230.72 99.3255L224.501 104.305L227.273 106.97L233.492 101.99L230.72 99.3255Z" fill="#3DF496"/>
<path d="M233.493 101.997L227.273 106.976L230.045 109.641L236.265 104.662L233.493 101.997Z" fill="#3DF496"/>
<path d="M236.269 104.659L230.05 109.638L232.821 112.303L239.041 107.324L236.269 104.659Z" fill="#3DF496"/>
<path d="M239.038 107.325L232.819 112.304L235.591 114.969L241.81 109.99L239.038 107.325Z" fill="#3DF496"/>
<path d="M241.809 109.985L235.59 114.964L238.362 117.629L244.581 112.65L241.809 109.985Z" fill="#3DF496"/>
<path d="M244.583 112.653L238.364 117.633L241.136 120.298L247.355 115.318L244.583 112.653Z" fill="#3DF496"/>
<path d="M221.729 101.642L215.51 106.621L218.282 109.286L224.501 104.307L221.729 101.642Z" fill="#3DF496"/>
<path d="M224.501 104.301L218.281 109.281L221.053 111.946L227.273 106.966L224.501 104.301Z" fill="#3DF496"/>
<path d="M227.273 106.972L221.054 111.951L223.826 114.616L230.045 109.637L227.273 106.972Z" fill="#3DF496"/>
<path d="M230.05 109.639L223.831 114.618L226.602 117.283L232.822 112.304L230.05 109.639Z" fill="#3DF496"/>
<path d="M232.82 112.305L226.6 117.284L229.372 119.949L235.591 114.97L232.82 112.305Z" fill="#3DF496"/>
<path d="M235.591 114.969L229.372 119.948L232.144 122.613L238.363 117.634L235.591 114.969Z" fill="#3DF496"/>
<path d="M238.364 117.637L232.145 122.617L234.917 125.282L241.136 120.302L238.364 117.637Z" fill="#3DF496"/>
<path d="M215.507 106.623L209.287 111.602L212.059 114.267L218.278 109.288L215.507 106.623Z" fill="#3DF496"/>
<path d="M218.278 109.287L212.059 114.266L214.831 116.931L221.05 111.952L218.278 109.287Z" fill="#3DF496"/>
<path d="M221.05 111.954L214.831 116.933L217.603 119.598L223.822 114.619L221.05 111.954Z" fill="#3DF496"/>
<path d="M223.827 114.62L217.608 119.599L220.38 122.264L226.599 117.285L223.827 114.62Z" fill="#3DF496"/>
<path d="M226.597 117.287L220.378 122.266L223.15 124.931L229.369 119.952L226.597 117.287Z" fill="#3DF496"/>
<path d="M229.367 119.953L223.148 124.932L225.92 127.597L232.139 122.618L229.367 119.953Z" fill="#3DF496"/>
<path d="M232.141 122.617L225.922 127.596L228.694 130.261L234.913 125.282L232.141 122.617Z" fill="#3DF496"/>
<path d="M212.059 114.267L205.84 119.246L208.612 121.911L214.831 116.932L212.059 114.267Z" fill="#3DF496"/>
<path d="M214.831 116.933L208.611 121.913L211.383 124.578L217.602 119.598L214.831 116.933Z" fill="#3DF496"/>
<path d="M217.608 119.595L211.388 124.574L214.16 127.239L220.38 122.26L217.608 119.595Z" fill="#3DF496"/>
<path d="M220.377 122.26L214.158 127.239L216.93 129.904L223.149 124.925L220.377 122.26Z" fill="#3DF496"/>
<path d="M223.149 124.932L216.929 129.912L219.701 132.577L225.921 127.597L223.149 124.932Z" fill="#3DF496"/>
<path d="M225.922 127.59L219.702 132.569L222.474 135.234L228.694 130.255L225.922 127.59Z" fill="#3DF496"/>
<path d="M211.388 124.581L205.169 129.561L207.941 132.226L214.16 127.246L211.388 124.581Z" fill="#3DF496"/>
<path d="M214.158 127.244L207.939 132.223L210.711 134.888L216.93 129.909L214.158 127.244Z" fill="#3DF496"/>
<path d="M227.273 106.972L221.054 111.951L223.826 114.616L230.045 109.637L227.273 106.972Z" fill="#3DF496"/>
<path d="M230.05 109.639L223.831 114.618L226.602 117.283L232.822 112.304L230.05 109.639Z" fill="#3DF496"/>
<path d="M221.05 111.954L214.831 116.933L217.603 119.598L223.822 114.619L221.05 111.954Z" fill="#3DF496"/>
<path d="M223.827 114.62L217.608 119.599L220.38 122.264L226.599 117.285L223.827 114.62Z" fill="#3DF496"/>
<path d="M236.269 104.659L230.05 109.638L232.821 112.303L239.041 107.324L236.269 104.659Z" fill="#3DF496"/>
<path d="M239.038 107.325L232.819 112.304L235.591 114.969L241.81 109.99L239.038 107.325Z" fill="#3DF496"/>
<path d="M230.05 109.639L223.831 114.618L226.602 117.283L232.822 112.304L230.05 109.639Z" fill="#3DF496"/>
<path d="M232.82 112.305L226.6 117.284L229.372 119.949L235.591 114.97L232.82 112.305Z" fill="#3DF496"/>
</g>
<mask id="mask6_476_7491" style="mask-type:luminance" maskUnits="userSpaceOnUse" x="229" y="114" width="3" height="5">
<path d="M229.799 114.568L230.992 115.716L231.344 117.962C231.069 118.206 230.768 118.458 230.451 118.712L229.799 114.568Z" fill="white"/>
</mask>
<g mask="url(#mask6_476_7491)">
<path d="M230.048 109.639L223.829 114.618L226.601 117.283L232.82 112.304L230.048 109.639Z" fill="#3DF496"/>
<path d="M232.819 112.301L226.6 117.28L229.372 119.945L235.591 114.966L232.819 112.301Z" fill="#3DF496"/>
</g>
<mask id="mask7_476_7491" style="mask-type:luminance" maskUnits="userSpaceOnUse" x="229" y="113" width="6" height="3">
<path d="M234.323 113.606C234.345 113.793 234.321 114.003 234.251 114.231C233.5 114.386 232.409 114.876 230.978 115.701L229.799 114.567C232.657 112.914 234.165 112.594 234.323 113.606Z" fill="white"/>
</mask>
<g mask="url(#mask7_476_7491)">
<path d="M239.037 107.323L232.817 112.303L235.589 114.968L241.808 109.988L239.037 107.323Z" fill="#3DF496"/>
<path d="M230.046 109.641L223.827 114.62L226.599 117.285L232.818 112.306L230.046 109.641Z" fill="#3DF496"/>
<path d="M232.817 112.303L226.598 117.282L229.37 119.947L235.589 114.968L232.817 112.303Z" fill="#3DF496"/>
</g>
<mask id="mask8_476_7491" style="mask-type:luminance" maskUnits="userSpaceOnUse" x="219" y="110" width="5" height="7">
<path d="M223.303 110.713L223.604 112.638C222.8 113.356 222.091 114.122 221.514 114.896C221.121 115.408 220.839 115.917 220.689 116.386C220.214 116.479 219.831 116.422 219.607 116.224C219.512 116.127 219.452 116.004 219.431 115.857C219.376 115.273 219.692 114.511 220.309 113.737C221.115 112.681 222.14 111.646 223.303 110.713Z" fill="white"/>
</mask>
<g mask="url(#mask8_476_7491)">
<path d="M227.278 106.981L221.059 111.96L223.831 114.625L230.05 109.646L227.278 106.981Z" fill="#3DF496"/>
<path d="M221.055 111.96L214.836 116.939L217.608 119.604L223.827 114.625L221.055 111.96Z" fill="#3DF496"/>
</g>
<mask id="mask9_476_7491" style="mask-type:luminance" maskUnits="userSpaceOnUse" x="227" y="101" width="3" height="4">
<path d="M227.78 101.675L228.974 102.823L229.13 103.812C228.827 103.992 228.521 104.181 228.205 104.38L228.063 103.467L227.78 101.675Z" fill="white"/>
</mask>
<g mask="url(#mask9_476_7491)">
<path d="M227.955 96.6768L221.736 101.656L224.508 104.321L230.727 99.3418L227.955 96.6768Z" fill="#3DF496"/>
<path d="M230.727 99.339L224.508 104.318L227.28 106.983L233.499 102.004L230.727 99.339Z" fill="#3DF496"/>
</g>
<mask id="mask10_476_7491" style="mask-type:luminance" maskUnits="userSpaceOnUse" x="230" y="107" width="13" height="19">
<path d="M240.627 107.93L241.784 109.042C242.005 109.26 242.143 109.543 242.19 109.878C242.38 111.074 241.586 112.814 239.808 115.1C238.031 117.385 235.444 119.838 232.05 122.459L232.473 125.137L231.279 123.989L230.856 121.312C234.249 118.688 236.834 116.234 238.613 113.95C240.392 111.666 241.189 109.923 241.004 108.719C240.988 108.704 240.996 108.666 240.991 108.642C240.934 108.362 240.812 108.122 240.627 107.93Z" fill="white"/>
</mask>
<g mask="url(#mask10_476_7491)">
<path d="M245.259 102.348L239.04 107.328L241.812 109.993L248.031 105.013L245.259 102.348Z" fill="#3DF496"/>
<path d="M248.032 105.012L241.813 109.991L244.585 112.656L250.804 107.677L248.032 105.012Z" fill="#3DF496"/>
<path d="M239.04 107.328L232.821 112.307L235.593 114.972L241.812 109.993L239.04 107.328Z" fill="#3DF496"/>
<path d="M241.812 109.99L235.593 114.969L238.365 117.634L244.584 112.655L241.812 109.99Z" fill="#3DF496"/>
<path d="M244.584 112.658L238.365 117.637L241.137 120.302L247.356 115.323L244.584 112.658Z" fill="#3DF496"/>
<path d="M232.821 112.307L226.602 117.286L229.373 119.951L235.593 114.972L232.821 112.307Z" fill="#3DF496"/>
<path d="M235.593 114.977L229.374 119.957L232.146 122.622L238.365 117.642L235.593 114.977Z" fill="#3DF496"/>
<path d="M238.365 117.638L232.146 122.617L234.918 125.282L241.137 120.303L238.365 117.638Z" fill="#3DF496"/>
<path d="M229.37 119.957L223.151 124.937L225.923 127.602L232.142 122.622L229.37 119.957Z" fill="#3DF496"/>
<path d="M232.142 122.615L225.923 127.594L228.695 130.259L234.914 125.28L232.142 122.615Z" fill="#3DF496"/>
</g>
<path d="M49.3611 204.949L68.6527 217.554C77.9501 223.629 108.822 201.061 137.609 167.147C166.396 133.233 182.195 100.817 172.897 94.7422L153.606 82.1374L49.3611 204.949Z" fill="#228753"/>
<path d="M117.632 154.055C146.398 120.154 162.185 87.7508 152.895 81.6794C143.604 75.608 112.753 98.1678 83.9865 132.068C55.2204 165.968 39.4326 198.372 48.7234 204.443C58.0142 210.515 88.8654 187.955 117.632 154.055Z" fill="#228753"/>
<path d="M111.493 152.176C134.853 124.646 147.674 98.3321 140.13 93.4017C132.585 88.4713 107.531 106.792 84.1705 134.322C60.81 161.852 47.9889 188.166 55.5337 193.096C63.0785 198.027 88.1323 179.706 111.493 152.176Z" fill="#26D97D"/>
<path d="M115.625 152.765C88.1844 185.182 58.8493 207.186 48.3268 203.611C48.6233 203.946 48.9467 204.257 49.3272 204.506C58.5738 210.555 89.2678 188.053 117.886 154.244C146.505 120.435 162.209 88.1253 152.962 82.0755C152.582 81.8266 152.151 81.6433 151.7 81.4901C158.615 89.3236 143.065 120.349 115.625 152.765Z" fill="#1FAD64"/>
<mask id="mask11_476_7491" style="mask-type:luminance" maskUnits="userSpaceOnUse" x="91" y="146" width="16" height="12">
<path d="M104.345 147.753L106.419 148.835L96.179 147.523L94.1438 149.284L93.4285 151.174L96.2831 157.609L94.2094 156.527L91.8715 151.253L91.3548 150.092L91.8626 148.751L91.9835 148.647L92.2187 148.443L92.7448 147.989L94.0014 146.899L94.4785 146.486L97.0017 146.811L104.345 147.753Z" fill="white"/>
</mask>
<g mask="url(#mask11_476_7491)">
<path d="M98.7175 140.363L95.4333 145.057L100.505 147.703L103.789 143.009L98.7175 140.363Z" fill="#3DF496"/>
<path d="M103.972 143.138L100.688 147.832L105.76 150.478L109.044 145.784L103.972 143.138Z" fill="#3DF496"/>
<path d="M90.3687 142.172L87.0845 146.865L92.1561 149.512L95.4403 144.818L90.3687 142.172Z" fill="#3DF496"/>
<path d="M95.6243 144.944L92.3401 149.638L97.4118 152.284L100.696 147.59L95.6243 144.944Z" fill="#3DF496"/>
<path d="M100.879 147.721L97.595 152.415L102.667 155.061L105.951 150.367L100.879 147.721Z" fill="#3DF496"/>
<path d="M87.2744 146.753L83.9902 151.446L89.0619 154.092L92.3461 149.399L87.2744 146.753Z" fill="#3DF496"/>
<path d="M92.5308 149.523L89.2466 154.216L94.3183 156.863L97.6024 152.169L92.5308 149.523Z" fill="#3DF496"/>
<path d="M97.7844 152.299L94.5002 156.993L99.5719 159.639L102.856 154.945L97.7844 152.299Z" fill="#3DF496"/>
</g>
<mask id="mask12_476_7491" style="mask-type:luminance" maskUnits="userSpaceOnUse" x="83" y="128" width="25" height="32">
<path d="M94.0652 142.931L93.7165 143.923L94.7518 143.009L97.192 140.891L100.777 137.776L101.58 139.581L101.842 139.718L97.657 143.369L100.176 143.682L107.526 144.571L106.691 145.294L103.904 147.711L96.616 146.773L94.1119 146.449L93.6389 146.859L92.3931 147.944L91.864 148.406L91.6309 148.609L91.5109 148.712L91.0086 150.045L91.5225 151.201L93.8452 156.445L91.9418 158.102L90.8007 159.093L88.478 153.849L87.6785 152.045L87.5622 151.778L84.8459 154.132L83.8465 154.994L83.0499 153.192L86.7712 149.968L83.3643 142.276L86.3983 139.637L87.3395 141.718L89.8127 147.318L90.3418 146.856L90.6816 145.734C90.8451 145.224 91.004 144.728 91.1641 144.246L95.6149 131.648L99.4084 128.354L97.8356 132.584L95.5841 138.646L95.5596 138.681L94.0652 142.931Z" fill="white"/>
</mask>
<g mask="url(#mask12_476_7491)">
<path d="M89.1389 122.884L85.8572 127.576L90.9312 130.224L94.2129 125.532L89.1389 122.884Z" fill="#3DF496"/>
<path d="M94.3928 125.657L91.1111 130.349L96.1851 132.997L99.4668 128.305L94.3928 125.657Z" fill="#3DF496"/>
<path d="M99.6457 128.429L96.364 133.121L101.438 135.769L104.72 131.077L99.6457 128.429Z" fill="#3DF496"/>
<path d="M104.903 131.208L101.621 135.9L106.695 138.548L109.977 133.856L104.903 131.208Z" fill="#3DF496"/>
<path d="M110.157 133.985L106.875 138.677L111.949 141.325L115.231 136.633L110.157 133.985Z" fill="#3DF496"/>
<path d="M86.0474 127.463L82.7656 132.155L87.8396 134.803L91.1213 130.111L86.0474 127.463Z" fill="#3DF496"/>
<path d="M91.2995 130.235L88.0178 134.927L93.0918 137.575L96.3735 132.883L91.2995 130.235Z" fill="#3DF496"/>
<path d="M96.5532 133.013L93.2715 137.705L98.3455 140.353L101.627 135.661L96.5532 133.013Z" fill="#3DF496"/>
<path d="M101.812 135.789L98.5298 140.481L103.604 143.129L106.885 138.437L101.812 135.789Z" fill="#3DF496"/>
<path d="M107.065 138.561L103.783 143.253L108.857 145.901L112.139 141.209L107.065 138.561Z" fill="#3DF496"/>
<path d="M82.9543 132.05L79.6726 136.742L84.7466 139.39L88.0283 134.698L82.9543 132.05Z" fill="#3DF496"/>
<path d="M88.2075 134.818L84.9258 139.51L89.9998 142.158L93.2815 137.466L88.2075 134.818Z" fill="#3DF496"/>
<path d="M93.4624 137.593L90.1807 142.285L95.2546 144.933L98.5364 140.241L93.4624 137.593Z" fill="#3DF496"/>
<path d="M98.7187 140.372L95.437 145.064L100.511 147.712L103.793 143.02L98.7187 140.372Z" fill="#3DF496"/>
<path d="M103.971 143.144L100.689 147.836L105.763 150.484L109.045 145.792L103.971 143.144Z" fill="#3DF496"/>
<path d="M79.8581 136.624L76.5764 141.316L81.6504 143.964L84.9321 139.272L79.8581 136.624Z" fill="#3DF496"/>
<path d="M85.1108 139.402L81.8291 144.094L86.9031 146.742L90.1848 142.05L85.1108 139.402Z" fill="#3DF496"/>
<path d="M90.365 142.178L87.0833 146.87L92.1572 149.518L95.439 144.826L90.365 142.178Z" fill="#3DF496"/>
<path d="M95.625 144.955L92.3433 149.647L97.4172 152.295L100.699 147.603L95.625 144.955Z" fill="#3DF496"/>
<path d="M100.877 147.731L97.5955 152.423L102.669 155.071L105.951 150.379L100.877 147.731Z" fill="#3DF496"/>
<path d="M82.0198 143.98L78.738 148.672L83.812 151.32L87.0937 146.628L82.0198 143.98Z" fill="#3DF496"/>
<path d="M87.2724 146.754L83.9907 151.446L89.0647 154.094L92.3464 149.402L87.2724 146.754Z" fill="#3DF496"/>
<path d="M92.53 149.534L89.2483 154.226L94.3223 156.874L97.604 152.182L92.53 149.534Z" fill="#3DF496"/>
<path d="M97.7827 152.308L94.501 157L99.575 159.648L102.857 154.956L97.7827 152.308Z" fill="#3DF496"/>
<path d="M78.9255 148.564L75.6438 153.256L80.7178 155.905L83.9995 151.213L78.9255 148.564Z" fill="#3DF496"/>
<path d="M84.1787 151.337L80.897 156.029L85.971 158.677L89.2527 153.985L84.1787 151.337Z" fill="#3DF496"/>
<path d="M89.4368 154.114L86.155 158.806L91.229 161.454L94.5107 156.762L89.4368 154.114Z" fill="#3DF496"/>
<path d="M94.6902 156.891L91.4084 161.583L96.4824 164.231L99.7642 159.539L94.6902 156.891Z" fill="#3DF496"/>
</g>
<mask id="mask13_476_7491" style="mask-type:luminance" maskUnits="userSpaceOnUse" x="91" y="156" width="6" height="5">
<path d="M94.5095 156.406L96.579 157.487L93.5014 160.153L91.4348 159.074L92.5833 158.079L94.5095 156.406Z" fill="white"/>
</mask>
<g mask="url(#mask13_476_7491)">
<path d="M92.529 149.524L89.2451 154.217L94.3171 156.864L97.601 152.17L92.529 149.524Z" fill="#3DF496"/>
<path d="M97.7834 152.303L94.4995 156.996L99.5715 159.643L102.855 154.949L97.7834 152.303Z" fill="#3DF496"/>
<path d="M89.4343 154.104L86.1504 158.798L91.2224 161.444L94.5062 156.751L89.4343 154.104Z" fill="#3DF496"/>
<path d="M94.6882 156.881L91.4043 161.575L96.4763 164.221L99.7601 159.527L94.6882 156.881Z" fill="#3DF496"/>
</g>
<mask id="mask14_476_7491" style="mask-type:luminance" maskUnits="userSpaceOnUse" x="84" y="151" width="5" height="5">
<path d="M87.8624 151.553L87.9787 151.82L88.7784 153.624L86.2154 155.849L84.156 154.772L85.1528 153.908L87.8624 151.553Z" fill="white"/>
</mask>
<g mask="url(#mask14_476_7491)">
<path d="M87.2646 146.75L83.9895 151.437L89.0697 154.09L92.3449 149.403L87.2646 146.75Z" fill="#3DF496"/>
<path d="M84.1723 151.328L80.8972 156.016L85.9775 158.669L89.2526 153.981L84.1723 151.328Z" fill="#3DF496"/>
</g>
<mask id="mask15_476_7491" style="mask-type:luminance" maskUnits="userSpaceOnUse" x="97" y="139" width="7" height="5">
<path d="M101.876 139.876L103.671 140.815L100.204 143.826L97.6831 143.518L101.876 139.876Z" fill="white"/>
</mask>
<g mask="url(#mask15_476_7491)">
<path d="M101.805 135.78L98.5295 140.468L103.61 143.121L106.885 138.433L101.805 135.78Z" fill="#3DF496"/>
<path d="M98.7108 140.363L95.4358 145.051L100.516 147.704L103.791 143.016L98.7108 140.363Z" fill="#3DF496"/>
</g>
<mask id="mask16_476_7491" style="mask-type:luminance" maskUnits="userSpaceOnUse" x="104" y="144" width="6" height="6">
<path d="M107.884 144.89L109.949 145.969L106.316 149.118L104.251 148.039L107.044 145.618L107.046 145.615L107.884 144.89Z" fill="white"/>
</mask>
<g mask="url(#mask16_476_7491)">
<path d="M107.064 138.562L103.781 143.255L108.853 145.902L112.136 141.208L107.064 138.562Z" fill="#3DF496"/>
<path d="M112.318 141.333L109.034 146.026L114.107 148.672L117.39 143.979L112.318 141.333Z" fill="#3DF496"/>
<path d="M103.97 143.141L100.687 147.834L105.759 150.481L109.043 145.787L103.97 143.141Z" fill="#3DF496"/>
<path d="M109.224 145.917L105.941 150.61L111.013 153.257L114.297 148.563L109.224 145.917Z" fill="#3DF496"/>
</g>
<mask id="mask17_476_7491" style="mask-type:luminance" maskUnits="userSpaceOnUse" x="100" y="137" width="4" height="4">
<path d="M100.667 137.932L102.788 139.037L103.613 140.891L101.492 139.786L100.667 137.932Z" fill="white"/>
</mask>
<g mask="url(#mask17_476_7491)">
<path d="M101.809 135.779L98.5259 140.472L103.599 143.118L106.882 138.425L101.809 135.779Z" fill="#3DF496"/>
</g>
<mask id="mask18_476_7491" style="mask-type:luminance" maskUnits="userSpaceOnUse" x="86" y="139" width="5" height="9">
<path d="M86.2292 139.403L88.3194 140.492L90.5721 145.572L90.2156 146.722L89.6773 147.19L87.1823 141.509L86.2292 139.403Z" fill="white"/>
</mask>
<g mask="url(#mask18_476_7491)">
<path d="M88.2105 134.812L84.9263 139.506L89.9979 142.152L93.2821 137.458L88.2105 134.812Z" fill="#3DF496"/>
<path d="M93.4634 137.589L90.1792 142.283L95.2508 144.929L98.5351 140.235L93.4634 137.589Z" fill="#3DF496"/>
<path d="M85.1148 139.399L81.8306 144.093L86.9022 146.739L90.1864 142.045L85.1148 139.399Z" fill="#3DF496"/>
<path d="M90.3685 142.178L87.0842 146.871L92.1559 149.517L95.4401 144.824L90.3685 142.178Z" fill="#3DF496"/>
</g>
<mask id="mask19_476_7491" style="mask-type:luminance" maskUnits="userSpaceOnUse" x="93" y="128" width="9" height="16">
<path d="M99.0382 128.475L101.072 129.543L96.9098 140.916L94.5108 143.017L93.4816 143.918L93.822 142.933L95.2869 138.722L95.3023 138.683L97.5017 132.67L99.0382 128.475Z" fill="white"/>
</mask>
<g mask="url(#mask19_476_7491)">
<path d="M94.3878 125.656L91.1104 130.345L96.1885 132.996L99.4659 128.307L94.3878 125.656Z" fill="#3DF496"/>
<path d="M99.6427 128.431L96.3652 133.12L101.443 135.771L104.721 131.082L99.6427 128.431Z" fill="#3DF496"/>
<path d="M91.294 130.239L88.0166 134.928L93.0947 137.579L96.3721 132.89L91.294 130.239Z" fill="#3DF496"/>
<path d="M96.5491 133.01L93.2717 137.699L98.3498 140.35L101.627 135.661L96.5491 133.01Z" fill="#3DF496"/>
<path d="M93.4554 137.593L90.178 142.282L95.2561 144.933L98.5335 140.244L93.4554 137.593Z" fill="#3DF496"/>
</g>
<mask id="mask20_476_7491" style="mask-type:luminance" maskUnits="userSpaceOnUse" x="91" y="146" width="16" height="12">
<path d="M104.345 147.753L106.419 148.835L96.179 147.523L94.1438 149.284L93.4285 151.174L96.2831 157.609L94.2094 156.527L91.8715 151.253L91.3548 150.092L91.8626 148.751L91.9835 148.647L92.2187 148.443L92.7448 147.989L94.0014 146.899L94.4785 146.486L97.0017 146.811L104.345 147.753Z" fill="white"/>
</mask>
<g mask="url(#mask20_476_7491)">
<path d="M98.7175 140.363L95.4333 145.057L100.505 147.703L103.789 143.009L98.7175 140.363Z" fill="#3DF496"/>
<path d="M103.972 143.138L100.688 147.832L105.76 150.478L109.044 145.784L103.972 143.138Z" fill="#3DF496"/>
<path d="M90.3687 142.172L87.0845 146.865L92.1561 149.512L95.4403 144.818L90.3687 142.172Z" fill="#3DF496"/>
<path d="M95.6243 144.944L92.3401 149.638L97.4118 152.284L100.696 147.59L95.6243 144.944Z" fill="#3DF496"/>
<path d="M100.879 147.721L97.595 152.415L102.667 155.061L105.951 150.367L100.879 147.721Z" fill="#3DF496"/>
<path d="M87.2744 146.753L83.9902 151.446L89.0619 154.092L92.3461 149.399L87.2744 146.753Z" fill="#3DF496"/>
<path d="M92.5308 149.523L89.2466 154.216L94.3183 156.863L97.6024 152.169L92.5308 149.523Z" fill="#3DF496"/>
<path d="M97.7844 152.299L94.5002 156.993L99.5719 159.639L102.856 154.945L97.7844 152.299Z" fill="#3DF496"/>
</g>
<mask id="mask21_476_7491" style="mask-type:luminance" maskUnits="userSpaceOnUse" x="83" y="128" width="25" height="32">
<path d="M94.0652 142.931L93.7165 143.923L94.7518 143.009L97.192 140.891L100.777 137.776L101.58 139.581L101.842 139.718L97.657 143.369L100.176 143.682L107.526 144.571L106.691 145.294L103.904 147.711L96.616 146.773L94.1119 146.449L93.6389 146.859L92.3931 147.944L91.864 148.406L91.6309 148.609L91.5109 148.712L91.0086 150.045L91.5225 151.201L93.8452 156.445L91.9418 158.102L90.8007 159.093L88.478 153.849L87.6785 152.045L87.5622 151.778L84.8459 154.132L83.8465 154.994L83.0499 153.192L86.7712 149.968L83.3643 142.276L86.3983 139.637L87.3395 141.718L89.8127 147.318L90.3418 146.856L90.6816 145.734C90.8451 145.224 91.004 144.728 91.1641 144.246L95.6149 131.648L99.4084 128.354L97.8356 132.584L95.5841 138.646L95.5596 138.681L94.0652 142.931Z" fill="white"/>
</mask>
<g mask="url(#mask21_476_7491)">
<path d="M89.1389 122.884L85.8572 127.576L90.9312 130.224L94.2129 125.532L89.1389 122.884Z" fill="#3DF496"/>
<path d="M94.3928 125.657L91.1111 130.349L96.1851 132.997L99.4668 128.305L94.3928 125.657Z" fill="#3DF496"/>
<path d="M99.6457 128.429L96.364 133.121L101.438 135.769L104.72 131.077L99.6457 128.429Z" fill="#3DF496"/>
<path d="M104.903 131.208L101.621 135.9L106.695 138.548L109.977 133.856L104.903 131.208Z" fill="#3DF496"/>
<path d="M110.157 133.985L106.875 138.677L111.949 141.325L115.231 136.633L110.157 133.985Z" fill="#3DF496"/>
<path d="M86.0474 127.463L82.7656 132.155L87.8396 134.803L91.1213 130.111L86.0474 127.463Z" fill="#3DF496"/>
<path d="M91.2995 130.235L88.0178 134.927L93.0918 137.575L96.3735 132.883L91.2995 130.235Z" fill="#3DF496"/>
<path d="M96.5532 133.013L93.2715 137.705L98.3455 140.353L101.627 135.661L96.5532 133.013Z" fill="#3DF496"/>
<path d="M101.812 135.789L98.5298 140.481L103.604 143.129L106.885 138.437L101.812 135.789Z" fill="#3DF496"/>
<path d="M107.065 138.561L103.783 143.253L108.857 145.901L112.139 141.209L107.065 138.561Z" fill="#3DF496"/>
<path d="M82.9543 132.05L79.6726 136.742L84.7466 139.39L88.0283 134.698L82.9543 132.05Z" fill="#3DF496"/>
<path d="M88.2075 134.818L84.9258 139.51L89.9998 142.158L93.2815 137.466L88.2075 134.818Z" fill="#3DF496"/>
<path d="M93.4624 137.593L90.1807 142.285L95.2546 144.933L98.5364 140.241L93.4624 137.593Z" fill="#3DF496"/>
<path d="M98.7187 140.372L95.437 145.064L100.511 147.712L103.793 143.02L98.7187 140.372Z" fill="#3DF496"/>
<path d="M103.971 143.144L100.689 147.836L105.763 150.484L109.045 145.792L103.971 143.144Z" fill="#3DF496"/>
<path d="M79.8581 136.624L76.5764 141.316L81.6504 143.964L84.9321 139.272L79.8581 136.624Z" fill="#3DF496"/>
<path d="M85.1108 139.402L81.8291 144.094L86.9031 146.742L90.1848 142.05L85.1108 139.402Z" fill="#3DF496"/>
<path d="M90.365 142.178L87.0833 146.87L92.1572 149.518L95.439 144.826L90.365 142.178Z" fill="#3DF496"/>
<path d="M95.625 144.955L92.3433 149.647L97.4172 152.295L100.699 147.603L95.625 144.955Z" fill="#3DF496"/>
<path d="M100.877 147.731L97.5955 152.423L102.669 155.071L105.951 150.379L100.877 147.731Z" fill="#3DF496"/>
<path d="M82.0198 143.98L78.738 148.672L83.812 151.32L87.0937 146.628L82.0198 143.98Z" fill="#3DF496"/>
<path d="M87.2724 146.754L83.9907 151.446L89.0647 154.094L92.3464 149.402L87.2724 146.754Z" fill="#3DF496"/>
<path d="M92.53 149.534L89.2483 154.226L94.3223 156.874L97.604 152.182L92.53 149.534Z" fill="#3DF496"/>
<path d="M97.7827 152.308L94.501 157L99.575 159.648L102.857 154.956L97.7827 152.308Z" fill="#3DF496"/>
<path d="M78.9255 148.564L75.6438 153.256L80.7178 155.905L83.9995 151.213L78.9255 148.564Z" fill="#3DF496"/>
<path d="M84.1787 151.337L80.897 156.029L85.971 158.677L89.2527 153.985L84.1787 151.337Z" fill="#3DF496"/>
<path d="M89.4368 154.114L86.155 158.806L91.229 161.454L94.5107 156.762L89.4368 154.114Z" fill="#3DF496"/>
<path d="M94.6902 156.891L91.4084 161.583L96.4824 164.231L99.7642 159.539L94.6902 156.891Z" fill="#3DF496"/>
</g>
<mask id="mask22_476_7491" style="mask-type:luminance" maskUnits="userSpaceOnUse" x="91" y="156" width="6" height="5">
<path d="M94.5095 156.406L96.579 157.487L93.5014 160.153L91.4348 159.074L92.5833 158.079L94.5095 156.406Z" fill="white"/>
</mask>
<g mask="url(#mask22_476_7491)">
<path d="M92.529 149.524L89.2451 154.217L94.3171 156.864L97.601 152.17L92.529 149.524Z" fill="#3DF496"/>
<path d="M97.7834 152.303L94.4995 156.996L99.5715 159.643L102.855 154.949L97.7834 152.303Z" fill="#3DF496"/>
<path d="M89.4343 154.104L86.1504 158.798L91.2224 161.444L94.5062 156.751L89.4343 154.104Z" fill="#3DF496"/>
<path d="M94.6882 156.881L91.4043 161.575L96.4763 164.221L99.7601 159.527L94.6882 156.881Z" fill="#3DF496"/>
</g>
<mask id="mask23_476_7491" style="mask-type:luminance" maskUnits="userSpaceOnUse" x="84" y="151" width="5" height="5">
<path d="M87.8624 151.553L87.9787 151.82L88.7784 153.624L86.2154 155.849L84.156 154.772L85.1528 153.908L87.8624 151.553Z" fill="white"/>
</mask>
<g mask="url(#mask23_476_7491)">
<path d="M87.2646 146.75L83.9895 151.437L89.0697 154.09L92.3449 149.403L87.2646 146.75Z" fill="#3DF496"/>
<path d="M84.1723 151.328L80.8972 156.016L85.9775 158.669L89.2526 153.981L84.1723 151.328Z" fill="#3DF496"/>
</g>
<mask id="mask24_476_7491" style="mask-type:luminance" maskUnits="userSpaceOnUse" x="97" y="139" width="7" height="5">
<path d="M101.876 139.876L103.671 140.815L100.204 143.826L97.6831 143.518L101.876 139.876Z" fill="white"/>
</mask>
<g mask="url(#mask24_476_7491)">
<path d="M101.805 135.78L98.5295 140.468L103.61 143.121L106.885 138.433L101.805 135.78Z" fill="#3DF496"/>
<path d="M98.7108 140.363L95.4358 145.051L100.516 147.704L103.791 143.016L98.7108 140.363Z" fill="#3DF496"/>
</g>
<mask id="mask25_476_7491" style="mask-type:luminance" maskUnits="userSpaceOnUse" x="104" y="144" width="6" height="6">
<path d="M107.884 144.89L109.949 145.969L106.316 149.118L104.251 148.039L107.044 145.618L107.046 145.615L107.884 144.89Z" fill="white"/>
</mask>
<g mask="url(#mask25_476_7491)">
<path d="M107.064 138.562L103.781 143.255L108.853 145.902L112.136 141.208L107.064 138.562Z" fill="#3DF496"/>
<path d="M112.318 141.333L109.034 146.026L114.107 148.672L117.39 143.979L112.318 141.333Z" fill="#3DF496"/>
<path d="M103.97 143.141L100.687 147.834L105.759 150.481L109.043 145.787L103.97 143.141Z" fill="#3DF496"/>
<path d="M109.224 145.917L105.941 150.61L111.013 153.257L114.297 148.563L109.224 145.917Z" fill="#3DF496"/>
</g>
<mask id="mask26_476_7491" style="mask-type:luminance" maskUnits="userSpaceOnUse" x="100" y="137" width="4" height="4">
<path d="M100.667 137.932L102.788 139.037L103.613 140.891L101.492 139.786L100.667 137.932Z" fill="white"/>
</mask>
<g mask="url(#mask26_476_7491)">
<path d="M101.809 135.779L98.5259 140.472L103.599 143.118L106.882 138.425L101.809 135.779Z" fill="#3DF496"/>
</g>
<mask id="mask27_476_7491" style="mask-type:luminance" maskUnits="userSpaceOnUse" x="86" y="139" width="5" height="9">
<path d="M86.2292 139.403L88.3194 140.492L90.5721 145.572L90.2156 146.722L89.6773 147.19L87.1823 141.509L86.2292 139.403Z" fill="white"/>
</mask>
<g mask="url(#mask27_476_7491)">
<path d="M88.2105 134.812L84.9263 139.506L89.9979 142.152L93.2821 137.458L88.2105 134.812Z" fill="#3DF496"/>
<path d="M93.4634 137.589L90.1792 142.283L95.2508 144.929L98.5351 140.235L93.4634 137.589Z" fill="#3DF496"/>
<path d="M85.1148 139.399L81.8306 144.093L86.9022 146.739L90.1864 142.045L85.1148 139.399Z" fill="#3DF496"/>
<path d="M90.3685 142.178L87.0842 146.871L92.1559 149.517L95.4401 144.824L90.3685 142.178Z" fill="#3DF496"/>
</g>
<mask id="mask28_476_7491" style="mask-type:luminance" maskUnits="userSpaceOnUse" x="93" y="128" width="9" height="16">
<path d="M99.0382 128.475L101.072 129.543L96.9098 140.916L94.5108 143.017L93.4816 143.918L93.822 142.933L95.2869 138.722L95.3023 138.683L97.5017 132.67L99.0382 128.475Z" fill="white"/>
</mask>
<g mask="url(#mask28_476_7491)">
<path d="M94.3878 125.656L91.1104 130.345L96.1885 132.996L99.4659 128.307L94.3878 125.656Z" fill="#3DF496"/>
<path d="M99.6427 128.431L96.3652 133.12L101.443 135.771L104.721 131.082L99.6427 128.431Z" fill="#3DF496"/>
<path d="M91.294 130.239L88.0166 134.928L93.0947 137.579L96.3721 132.89L91.294 130.239Z" fill="#3DF496"/>
<path d="M96.5491 133.01L93.2717 137.699L98.3498 140.35L101.627 135.661L96.5491 133.01Z" fill="#3DF496"/>
<path d="M93.4554 137.593L90.178 142.282L95.2561 144.933L98.5335 140.244L93.4554 137.593Z" fill="#3DF496"/>
</g>
<mask id="mask29_476_7491" style="mask-type:luminance" maskUnits="userSpaceOnUse" x="91" y="146" width="16" height="12">
<path d="M104.345 147.753L106.419 148.835L96.179 147.523L94.1438 149.284L93.4285 151.174L96.2831 157.609L94.2094 156.527L91.8715 151.253L91.3548 150.092L91.8626 148.751L91.9835 148.647L92.2187 148.443L92.7448 147.989L94.0014 146.899L94.4785 146.486L97.0017 146.811L104.345 147.753Z" fill="white"/>
</mask>
<g mask="url(#mask29_476_7491)">
<path d="M98.7175 140.363L95.4333 145.057L100.505 147.703L103.789 143.009L98.7175 140.363Z" fill="#3DF496"/>
<path d="M103.972 143.138L100.688 147.832L105.76 150.478L109.044 145.784L103.972 143.138Z" fill="#3DF496"/>
<path d="M90.3687 142.172L87.0845 146.865L92.1561 149.512L95.4403 144.818L90.3687 142.172Z" fill="#3DF496"/>
<path d="M95.6243 144.944L92.3401 149.638L97.4118 152.284L100.696 147.59L95.6243 144.944Z" fill="#3DF496"/>
<path d="M100.879 147.721L97.595 152.415L102.667 155.061L105.951 150.367L100.879 147.721Z" fill="#3DF496"/>
<path d="M87.2744 146.753L83.9902 151.446L89.0619 154.092L92.3461 149.399L87.2744 146.753Z" fill="#3DF496"/>
<path d="M92.5308 149.523L89.2466 154.216L94.3183 156.863L97.6024 152.169L92.5308 149.523Z" fill="#3DF496"/>
<path d="M97.7844 152.299L94.5002 156.993L99.5719 159.639L102.856 154.945L97.7844 152.299Z" fill="#3DF496"/>
</g>
<mask id="mask30_476_7491" style="mask-type:luminance" maskUnits="userSpaceOnUse" x="83" y="128" width="25" height="32">
<path d="M94.0652 142.931L93.7165 143.923L94.7518 143.009L97.192 140.891L100.777 137.776L101.58 139.581L101.842 139.718L97.657 143.369L100.176 143.682L107.526 144.571L106.691 145.294L103.904 147.711L96.616 146.773L94.1119 146.449L93.6389 146.859L92.3931 147.944L91.864 148.406L91.6309 148.609L91.5109 148.712L91.0086 150.045L91.5225 151.201L93.8452 156.445L91.9418 158.102L90.8007 159.093L88.478 153.849L87.6785 152.045L87.5622 151.778L84.8459 154.132L83.8465 154.994L83.0499 153.192L86.7712 149.968L83.3643 142.276L86.3983 139.637L87.3395 141.718L89.8127 147.318L90.3418 146.856L90.6816 145.734C90.8451 145.224 91.004 144.728 91.1641 144.246L95.6149 131.648L99.4084 128.354L97.8356 132.584L95.5841 138.646L95.5596 138.681L94.0652 142.931Z" fill="white"/>
</mask>
<g mask="url(#mask30_476_7491)">
<path d="M89.1389 122.884L85.8572 127.576L90.9312 130.224L94.2129 125.532L89.1389 122.884Z" fill="#3DF496"/>
<path d="M94.3928 125.657L91.1111 130.349L96.1851 132.997L99.4668 128.305L94.3928 125.657Z" fill="#3DF496"/>
<path d="M99.6457 128.429L96.364 133.121L101.438 135.769L104.72 131.077L99.6457 128.429Z" fill="#3DF496"/>
<path d="M104.903 131.208L101.621 135.9L106.695 138.548L109.977 133.856L104.903 131.208Z" fill="#3DF496"/>
<path d="M110.157 133.985L106.875 138.677L111.949 141.325L115.231 136.633L110.157 133.985Z" fill="#3DF496"/>
<path d="M86.0474 127.463L82.7656 132.155L87.8396 134.803L91.1213 130.111L86.0474 127.463Z" fill="#3DF496"/>
<path d="M91.2995 130.235L88.0178 134.927L93.0918 137.575L96.3735 132.883L91.2995 130.235Z" fill="#3DF496"/>
<path d="M96.5532 133.013L93.2715 137.705L98.3455 140.353L101.627 135.661L96.5532 133.013Z" fill="#3DF496"/>
<path d="M101.812 135.789L98.5298 140.481L103.604 143.129L106.885 138.437L101.812 135.789Z" fill="#3DF496"/>
<path d="M107.065 138.561L103.783 143.253L108.857 145.901L112.139 141.209L107.065 138.561Z" fill="#3DF496"/>
<path d="M82.9543 132.05L79.6726 136.742L84.7466 139.39L88.0283 134.698L82.9543 132.05Z" fill="#3DF496"/>
<path d="M88.2075 134.818L84.9258 139.51L89.9998 142.158L93.2815 137.466L88.2075 134.818Z" fill="#3DF496"/>
<path d="M93.4624 137.593L90.1807 142.285L95.2546 144.933L98.5364 140.241L93.4624 137.593Z" fill="#3DF496"/>
<path d="M98.7187 140.372L95.437 145.064L100.511 147.712L103.793 143.02L98.7187 140.372Z" fill="#3DF496"/>
<path d="M103.971 143.144L100.689 147.836L105.763 150.484L109.045 145.792L103.971 143.144Z" fill="#3DF496"/>
<path d="M79.8581 136.624L76.5764 141.316L81.6504 143.964L84.9321 139.272L79.8581 136.624Z" fill="#3DF496"/>
<path d="M85.1108 139.402L81.8291 144.094L86.9031 146.742L90.1848 142.05L85.1108 139.402Z" fill="#3DF496"/>
<path d="M90.365 142.178L87.0833 146.87L92.1572 149.518L95.439 144.826L90.365 142.178Z" fill="#3DF496"/>
<path d="M95.625 144.955L92.3433 149.647L97.4172 152.295L100.699 147.603L95.625 144.955Z" fill="#3DF496"/>
<path d="M100.877 147.731L97.5955 152.423L102.669 155.071L105.951 150.379L100.877 147.731Z" fill="#3DF496"/>
<path d="M82.0198 143.98L78.738 148.672L83.812 151.32L87.0937 146.628L82.0198 143.98Z" fill="#3DF496"/>
<path d="M87.2724 146.754L83.9907 151.446L89.0647 154.094L92.3464 149.402L87.2724 146.754Z" fill="#3DF496"/>
<path d="M92.53 149.534L89.2483 154.226L94.3223 156.874L97.604 152.182L92.53 149.534Z" fill="#3DF496"/>
<path d="M97.7827 152.308L94.501 157L99.575 159.648L102.857 154.956L97.7827 152.308Z" fill="#3DF496"/>
<path d="M78.9255 148.564L75.6438 153.256L80.7178 155.905L83.9995 151.213L78.9255 148.564Z" fill="#3DF496"/>
<path d="M84.1787 151.337L80.897 156.029L85.971 158.677L89.2527 153.985L84.1787 151.337Z" fill="#3DF496"/>
<path d="M89.4368 154.114L86.155 158.806L91.229 161.454L94.5107 156.762L89.4368 154.114Z" fill="#3DF496"/>
<path d="M94.6902 156.891L91.4084 161.583L96.4824 164.231L99.7642 159.539L94.6902 156.891Z" fill="#3DF496"/>
</g>
<mask id="mask31_476_7491" style="mask-type:luminance" maskUnits="userSpaceOnUse" x="91" y="156" width="6" height="5">
<path d="M94.5095 156.406L96.579 157.487L93.5014 160.153L91.4348 159.074L92.5833 158.079L94.5095 156.406Z" fill="white"/>
</mask>
<g mask="url(#mask31_476_7491)">
<path d="M92.529 149.524L89.2451 154.217L94.3171 156.864L97.601 152.17L92.529 149.524Z" fill="#3DF496"/>
<path d="M97.7834 152.303L94.4995 156.996L99.5715 159.643L102.855 154.949L97.7834 152.303Z" fill="#3DF496"/>
<path d="M89.4343 154.104L86.1504 158.798L91.2224 161.444L94.5062 156.751L89.4343 154.104Z" fill="#3DF496"/>
<path d="M94.6882 156.881L91.4043 161.575L96.4763 164.221L99.7601 159.527L94.6882 156.881Z" fill="#3DF496"/>
</g>
<mask id="mask32_476_7491" style="mask-type:luminance" maskUnits="userSpaceOnUse" x="84" y="151" width="5" height="5">
<path d="M87.8624 151.553L87.9787 151.82L88.7784 153.624L86.2154 155.849L84.156 154.772L85.1528 153.908L87.8624 151.553Z" fill="white"/>
</mask>
<g mask="url(#mask32_476_7491)">
<path d="M87.2646 146.75L83.9895 151.437L89.0697 154.09L92.3449 149.403L87.2646 146.75Z" fill="#3DF496"/>
<path d="M84.1723 151.328L80.8972 156.016L85.9775 158.669L89.2526 153.981L84.1723 151.328Z" fill="#3DF496"/>
</g>
<mask id="mask33_476_7491" style="mask-type:luminance" maskUnits="userSpaceOnUse" x="97" y="139" width="7" height="5">
<path d="M101.876 139.876L103.671 140.815L100.204 143.826L97.6831 143.518L101.876 139.876Z" fill="white"/>
</mask>
<g mask="url(#mask33_476_7491)">
<path d="M101.805 135.78L98.5295 140.468L103.61 143.121L106.885 138.433L101.805 135.78Z" fill="#3DF496"/>
<path d="M98.7108 140.363L95.4358 145.051L100.516 147.704L103.791 143.016L98.7108 140.363Z" fill="#3DF496"/>
</g>
<mask id="mask34_476_7491" style="mask-type:luminance" maskUnits="userSpaceOnUse" x="104" y="144" width="6" height="6">
<path d="M107.884 144.89L109.949 145.969L106.316 149.118L104.251 148.039L107.044 145.618L107.046 145.615L107.884 144.89Z" fill="white"/>
</mask>
<g mask="url(#mask34_476_7491)">
<path d="M107.064 138.562L103.781 143.255L108.853 145.902L112.136 141.208L107.064 138.562Z" fill="#3DF496"/>
<path d="M112.318 141.333L109.034 146.026L114.107 148.672L117.39 143.979L112.318 141.333Z" fill="#3DF496"/>
<path d="M103.97 143.141L100.687 147.834L105.759 150.481L109.043 145.787L103.97 143.141Z" fill="#3DF496"/>
<path d="M109.224 145.917L105.941 150.61L111.013 153.257L114.297 148.563L109.224 145.917Z" fill="#3DF496"/>
</g>
<mask id="mask35_476_7491" style="mask-type:luminance" maskUnits="userSpaceOnUse" x="100" y="137" width="4" height="4">
<path d="M100.667 137.932L102.788 139.037L103.613 140.891L101.492 139.786L100.667 137.932Z" fill="white"/>
</mask>
<g mask="url(#mask35_476_7491)">
<path d="M101.809 135.779L98.5259 140.472L103.599 143.118L106.882 138.425L101.809 135.779Z" fill="#3DF496"/>
</g>
<mask id="mask36_476_7491" style="mask-type:luminance" maskUnits="userSpaceOnUse" x="86" y="139" width="5" height="9">
<path d="M86.2292 139.403L88.3194 140.492L90.5721 145.572L90.2156 146.722L89.6773 147.19L87.1823 141.509L86.2292 139.403Z" fill="white"/>
</mask>
<g mask="url(#mask36_476_7491)">
<path d="M88.2105 134.812L84.9263 139.506L89.9979 142.152L93.2821 137.458L88.2105 134.812Z" fill="#3DF496"/>
<path d="M93.4634 137.589L90.1792 142.283L95.2508 144.929L98.5351 140.235L93.4634 137.589Z" fill="#3DF496"/>
<path d="M85.1148 139.399L81.8306 144.093L86.9022 146.739L90.1864 142.045L85.1148 139.399Z" fill="#3DF496"/>
<path d="M90.3685 142.178L87.0842 146.871L92.1559 149.517L95.4401 144.824L90.3685 142.178Z" fill="#3DF496"/>
</g>
<mask id="mask37_476_7491" style="mask-type:luminance" maskUnits="userSpaceOnUse" x="93" y="128" width="9" height="16">
<path d="M99.0382 128.475L101.072 129.543L96.9098 140.916L94.5108 143.017L93.4816 143.918L93.822 142.933L95.2869 138.722L95.3023 138.683L97.5017 132.67L99.0382 128.475Z" fill="white"/>
</mask>
<g mask="url(#mask37_476_7491)">
<path d="M94.3878 125.656L91.1104 130.345L96.1885 132.996L99.4659 128.307L94.3878 125.656Z" fill="#3DF496"/>
<path d="M99.6427 128.431L96.3652 133.12L101.443 135.771L104.721 131.082L99.6427 128.431Z" fill="#3DF496"/>
<path d="M91.294 130.239L88.0166 134.928L93.0947 137.579L96.3721 132.89L91.294 130.239Z" fill="#3DF496"/>
<path d="M96.5491 133.01L93.2717 137.699L98.3498 140.35L101.627 135.661L96.5491 133.01Z" fill="#3DF496"/>
<path d="M93.4554 137.593L90.178 142.282L95.2561 144.933L98.5335 140.244L93.4554 137.593Z" fill="#3DF496"/>
</g>
<path d="M148.131 206.293L162.645 224.886C169.64 233.847 143.454 259.945 104.155 283.178C64.857 306.412 27.3305 317.983 20.3355 309.022L5.82113 290.429L148.131 206.293Z" fill="#228753"/>
<path d="M90.0635 265.045C50.7513 288.29 13.2103 299.866 6.21339 290.901C-0.783504 281.937 25.4133 255.826 64.7256 232.581C104.038 209.336 141.579 197.76 148.576 206.725C155.573 215.69 129.376 241.8 90.0635 265.045Z" fill="#228753"/>
<path d="M88.0276 259.386C56.1027 278.263 25.6163 287.664 19.9343 280.384C14.2523 273.104 35.5263 251.9 67.4512 233.023C99.3761 214.146 129.863 204.745 135.545 212.025C141.227 219.306 119.952 240.51 88.0276 259.386Z" fill="#26D97D"/>
<path d="M88.1804 262.676C125.972 240.306 151.655 215.304 147.525 205.349C147.915 205.65 148.275 205.973 148.563 206.343C155.575 215.341 129.309 241.547 89.895 264.876C50.4813 288.206 12.8478 299.824 5.8361 290.826C5.54755 290.456 5.33554 290.045 5.15858 289.618C14.2522 296.633 50.3904 285.044 88.1804 262.676Z" fill="#1FAD64"/>
<path d="M68.8109 259.786L71.6113 261.13L67.5116 263.43L64.7095 262.084L67.5196 260.509L68.8109 259.786Z" fill="#3DF496"/>
<path d="M68.9062 252.699L71.6895 254.037L71.6874 254.038L71.6651 261.103L68.8834 259.768L68.8966 255.6L68.9085 252.978L68.904 252.701L68.9062 252.699Z" fill="#3DF496"/>
<path d="M85.2502 243.492L88.0319 244.827L88.0074 251.894L85.2279 250.557L85.2385 246.393L85.2406 246.392L85.2508 243.768L85.2502 243.492Z" fill="#3DF496"/>
<path d="M89.999 240.831L92.8024 242.179L88.1067 244.81L85.3032 243.462L85.3054 243.461L88.1148 241.886L89.999 240.831Z" fill="#3DF496"/>
<path d="M88.1887 237.746L87.9206 237.895L85.3777 239.318L86.846 240.029L88.1874 239.276L90.0694 238.223L91.4058 238.865L92.878 238.04L90.0763 236.695L88.1887 237.746Z" fill="#3DF496"/>
<path d="M88.1978 238.039L88.2019 238.037L88.205 238.04L88.1978 238.039Z" fill="#3DF496"/>
<path d="M85.3679 239.354L86.8265 240.052L85.3617 240.873L85.3668 239.63L85.3679 239.354Z" fill="#3DF496"/>
<path d="M69.0285 248.574L70.4849 249.274L69.0278 250.095L69.0292 248.852L69.0285 248.574Z" fill="#3DF496"/>
<path d="M69.0994 244.644L70.1235 245.377L69.0921 245.954L69.0994 244.644Z" fill="#3DF496"/>
<path d="M79.2825 246.885L80.3733 247.41L80.357 247.682L79.4933 247.043L79.2825 246.885Z" fill="#3DF496"/>
<path fill-rule="evenodd" clip-rule="evenodd" d="M88.2019 238.037L88.205 238.04L88.1978 238.039L88.2019 238.037Z" fill="#3DF496"/>
<path fill-rule="evenodd" clip-rule="evenodd" d="M79.5477 247.015L80.3731 247.412L80.3568 247.684L79.4927 247.045L79.5477 247.015Z" fill="#3DF496"/>
<path d="M76.1265 244.575L77.5742 245.271L77.287 245.433L76.3342 244.729L76.1265 244.575Z" fill="#3DF496"/>
<path fill-rule="evenodd" clip-rule="evenodd" d="M75.3486 249.096L75.5701 249.253L77.6367 250.733L71.7702 254.024L68.9646 252.676L71.7762 251.1L75.3486 249.096Z" fill="#3DF496"/>
<path fill-rule="evenodd" clip-rule="evenodd" d="M85.3088 236.784L85.3195 233.507L85.3297 230.584L81.2166 232.889L80.8661 239.269L74.6335 242.761L74.0752 243.076L71.6627 241.284L69.4297 239.638L64.9862 241.98L64.9692 248.181L60.2765 250.813L60.2662 253.455L62.805 252.028L64.9588 250.823L64.9573 251.102L64.9537 252.352L63.0744 253.404L61.7355 254.154L60.2637 254.979L60.2528 257.624L62.7934 256.199L64.9472 254.994L64.9456 255.274L64.9358 257.913L64.9223 262.11L67.733 260.534L69.0245 259.811L69.038 255.614L69.0484 252.972L69.0456 252.695L71.8541 251.121L75.4208 249.117L75.6454 249.278L77.7116 250.759L80.9898 253.109L81.5067 252.82L85.2619 250.713L85.2749 246.519L85.2852 243.877L85.2846 243.598L88.0932 242.024L89.9768 240.97L89.9804 239.72L89.9833 238.327L88.1019 239.381L86.7651 240.13L85.2955 240.953L85.3008 239.706L85.3023 239.426L87.8445 238.003L88.1125 237.854L89.9945 236.797L90.0032 234.154L88.1196 235.208L85.3088 236.784ZM72.3867 246.943L73.3564 247.639L71.865 248.476L70.5201 249.227L69.0687 250.06L69.0701 248.812L69.0574 248.536L71.8621 246.961L72.1601 246.796L72.3867 246.943ZM70.1037 245.302L69.0676 245.882L69.0751 244.565L70.1037 245.302ZM80.4457 246.57L80.422 247.042L80.4042 247.474L80.3877 247.748L79.4979 247.098L79.2798 246.933L79.8414 246.622L80.4488 246.28L80.4457 246.57ZM80.6934 242.279L80.6172 243.555L77.8239 245.119L77.5597 245.268L77.2699 245.431L76.3083 244.722L76.1081 244.581L76.6643 244.267L80.7054 241.996L80.6934 242.279Z" fill="#3DF496"/>
<path fill-rule="evenodd" clip-rule="evenodd" d="M80.7423 241.969L80.7259 242.256L80.6578 243.545L80.6556 243.546L77.8561 245.114L77.5914 245.264L76.1272 244.56L76.6845 244.245L80.7423 241.969Z" fill="#3DF496"/>
<path fill-rule="evenodd" clip-rule="evenodd" d="M72.1477 246.813L72.3614 246.969L73.3391 247.67L71.8465 248.508L70.5004 249.26L69.0381 248.558L69.0403 248.556L71.8473 246.98L71.8495 246.979L72.1477 246.813Z" fill="#3DF496"/>
<path d="M90.0481 238.2L92.8277 239.535L92.823 242.159L90.0417 240.823L90.0452 239.583L90.0481 238.2Z" fill="#3DF496"/>
<path d="M90.1262 234.062L92.9036 235.398L92.8972 238.02L90.1176 236.685L90.1262 234.062Z" fill="#3DF496"/>
<path d="M85.1497 250.566L87.9483 251.912L83.6785 254.307L80.8777 252.962L81.3946 252.673L85.1497 250.566Z" fill="#3DF496"/>
<path d="M64.8056 255.056L64.8041 255.336L64.7959 257.975L62.911 259.03L60.1135 257.684L62.6528 256.26L64.8056 255.056Z" fill="#3DF496"/>
<path d="M64.888 250.907L64.8864 251.188L64.8827 252.44L62.9948 253.498L61.6529 254.251L60.1848 253.546L62.7293 252.116L64.888 250.907Z" fill="#3DF496"/>
<path d="M69.5361 239.721L72.3066 241.052L74.6832 242.811L74.1309 243.123L71.7405 241.352L69.5361 239.721Z" fill="#3DF496"/>
<path d="M85.4974 230.563L88.2874 231.903L88.2749 235.166L85.477 236.733L85.4874 233.473L85.4974 230.563Z" fill="#3DF496"/>
<path d="M80.4482 246.229L80.4299 246.515L80.4062 246.986L80.3818 247.408L79.2827 246.88L79.8405 246.57L80.4482 246.229Z" fill="#3DF496"/>
</g>
</svg>
